<svg xmlns="http://www.w3.org/2000/svg" width="500" height="500" viewBox="0 0 500 500"><rect width="100%" height="100%" fill="#DDDDDD"/><path fill="#999999" d="m114.45 233.53-1.68 9.94q1.58-.33 3.04-.48 1.45-.15 2.8-.15 3.76 0 6.63 1.12t4.82 3.1q1.95 1.98 2.94 4.64.99 2.66.99 5.73 0 3.79-1.34 6.93-1.33 3.13-3.71 5.36-2.38 2.23-5.63 3.45-3.25 1.22-7.08 1.22-2.24 0-4.25-.46-2.02-.47-3.78-1.24-1.77-.78-3.27-1.78-1.5-1.01-2.69-2.13l2.51-3.47q.79-1.12 2.08-1.12.82 0 1.68.53t1.97 1.15q1.1.63 2.6 1.16 1.5.53 3.62.53 2.24 0 3.96-.73 1.71-.73 2.85-2.03 1.14-1.3 1.72-3.1.57-1.8.57-3.91 0-3.89-2.26-6.09-2.26-2.19-6.68-2.19-3.4 0-6.96 1.25l-5.08-1.45 3.96-23.17h23.56v3.47q0 1.75-1.09 2.84-1.09 1.08-3.7 1.08h-13.1ZM174.28 250q0 6.24-1.33 10.84-1.34 4.6-3.7 7.61-2.36 3-5.58 4.47-3.22 1.47-6.94 1.47-3.73 0-6.92-1.47-3.18-1.47-5.53-4.47-2.34-3.01-3.66-7.61-1.32-4.6-1.32-10.84 0-6.27 1.32-10.86 1.32-4.58 3.66-7.59 2.35-3 5.53-4.47 3.19-1.47 6.92-1.47 3.72 0 6.94 1.47t5.58 4.47q2.36 3.01 3.7 7.59 1.33 4.59 1.33 10.86Zm-8.41 0q0-5.18-.76-8.58-.76-3.4-2.03-5.41-1.27-2.01-2.92-2.82t-3.43-.81q-1.75 0-3.39.81-1.63.81-2.88 2.82-1.26 2.01-2 5.41-.74 3.4-.74 8.58t.74 8.58q.74 3.4 2 5.41 1.25 2.02 2.88 2.82 1.64.81 3.39.81 1.78 0 3.43-.81 1.65-.8 2.92-2.82 1.27-2.01 2.03-5.41.76-3.4.76-8.58Zm46.69 0q0 6.24-1.33 10.84-1.34 4.6-3.7 7.61-2.36 3-5.58 4.47-3.22 1.47-6.94 1.47-3.73 0-6.92-1.47-3.18-1.47-5.53-4.47-2.34-3.01-3.66-7.61-1.32-4.6-1.32-10.84 0-6.27 1.32-10.86 1.32-4.58 3.66-7.59 2.35-3 5.53-4.47 3.19-1.47 6.92-1.47 3.72 0 6.94 1.47t5.58 4.47q2.36 3.01 3.7 7.59 1.33 4.59 1.33 10.86Zm-8.41 0q0-5.18-.76-8.58-.76-3.4-2.03-5.41-1.27-2.01-2.92-2.82t-3.43-.81q-1.75 0-3.39.81-1.63.81-2.88 2.82-1.26 2.01-2 5.41-.74 3.4-.74 8.58t.74 8.58q.74 3.4 2 5.41 1.25 2.02 2.88 2.82 1.64.81 3.39.81 1.78 0 3.43-.81 1.65-.8 2.92-2.82 1.27-2.01 2.03-5.41.76-3.4.76-8.58Zm60.82 12.94-4.33 4.25-11.18-11.18-11.29 11.25-4.32-4.26 11.28-11.32-10.76-10.75 4.29-4.29 10.76 10.75 10.69-10.69 4.36 4.29-10.72 10.73 11.22 11.22Zm34.68-29.41-1.68 9.94q1.58-.33 3.03-.48 1.45-.15 2.81-.15 3.76 0 6.63 1.12t4.82 3.1q1.94 1.98 2.93 4.64.99 2.66.99 5.73 0 3.79-1.33 6.93-1.34 3.13-3.71 5.36-2.38 2.23-5.63 3.45-3.25 1.22-7.08 1.22-2.24 0-4.26-.46-2.01-.47-3.77-1.24-1.77-.78-3.27-1.78-1.5-1.01-2.69-2.13l2.51-3.47q.79-1.12 2.08-1.12.82 0 1.68.53t1.96 1.15q1.11.63 2.61 1.16 1.5.53 3.61.53 2.25 0 3.96-.73 1.72-.73 2.86-2.03 1.14-1.3 1.71-3.1.58-1.8.58-3.91 0-3.89-2.26-6.09-2.26-2.19-6.68-2.19-3.4 0-6.97 1.25l-5.08-1.45 3.96-23.17h23.56v3.47q0 1.75-1.08 2.84-1.09 1.08-3.7 1.08h-13.1ZM359.48 250q0 6.24-1.34 10.84t-3.69 7.61q-2.36 3-5.58 4.47-3.22 1.47-6.95 1.47t-6.91-1.47q-3.19-1.47-5.53-4.47-2.34-3.01-3.66-7.61-1.32-4.6-1.32-10.84 0-6.27 1.32-10.86 1.32-4.58 3.66-7.59 2.34-3 5.53-4.47 3.18-1.47 6.91-1.47t6.95 1.47q3.22 1.47 5.58 4.47 2.35 3.01 3.69 7.59 1.34 4.59 1.34 10.86Zm-8.42 0q0-5.18-.76-8.58-.76-3.4-2.03-5.41-1.27-2.01-2.92-2.82t-3.43-.81q-1.75 0-3.38.81t-2.89 2.82q-1.25 2.01-1.99 5.41-.75 3.4-.75 8.58t.75 8.58q.74 3.4 1.99 5.41 1.26 2.02 2.89 2.82 1.63.81 3.38.81 1.78 0 3.43-.81 1.65-.8 2.92-2.82 1.27-2.01 2.03-5.41.76-3.4.76-8.58Zm46.7 0q0 6.24-1.34 10.84t-3.69 7.61q-2.36 3-5.58 4.47-3.22 1.47-6.95 1.47t-6.91-1.47q-3.19-1.47-5.53-4.47-2.34-3.01-3.66-7.61-1.32-4.6-1.32-10.84 0-6.27 1.32-10.86 1.32-4.58 3.66-7.59 2.34-3 5.53-4.47 3.18-1.47 6.91-1.47t6.95 1.47q3.22 1.47 5.58 4.47 2.35 3.01 3.69 7.59 1.34 4.59 1.34 10.86Zm-8.42 0q0-5.18-.76-8.58-.76-3.4-2.03-5.41-1.27-2.01-2.92-2.82t-3.43-.81q-1.75 0-3.38.81t-2.89 2.82q-1.25 2.01-1.99 5.41-.75 3.4-.75 8.58t.75 8.58q.74 3.4 1.99 5.41 1.26 2.02 2.89 2.82 1.63.81 3.38.81 1.78 0 3.43-.81 1.65-.8 2.92-2.82 1.27-2.01 2.03-5.41.76-3.4.76-8.58Z"/></svg>